{
	"asset":{
		"generator":"Khronos glTF Blender I/O v4.0.44",
		"version":"2.0"
	},
	"scene":0,
	"scenes":[
		{
			"name":"Scene",
			"nodes":[
				0
			]
		}
	],
	"nodes":[
		{
			"mesh":0,
			"name":"SingleMesh"
		}
	],
	"meshes":[
		{
			"name":"Plane",
			"primitives":[
				{
					"attributes":{
						"POSITION":0,
						"NORMAL":1
					},
					"indices":2
				}
			]
		}
	],
	"accessors":[
		{
			"bufferView":0,
			"componentType":5126,
			"count":13350,
			"max":[
				3.5284311771392822,
				0.10000000149011612,
				3.394775867462158
			],
			"min":[
				-3.493022918701172,
				-1.1100000143051147,
				-3.415830135345459
			],
			"type":"VEC3"
		},
		{
			"bufferView":1,
			"componentType":5126,
			"count":13350,
			"type":"VEC3"
		},
		{
			"bufferView":2,
			"componentType":5123,
			"count":23808,
			"type":"SCALAR"
		}
	],
	"bufferViews":[
		{
			"buffer":0,
			"byteLength":160200,
			"byteOffset":0,
			"target":34962
		},
		{
			"buffer":0,
			"byteLength":160200,
			"byteOffset":160200,
			"target":34962
		},
		{
			"buffer":0,
			"byteLength":47616,
			"byteOffset":320400,
			"target":34963
		}
	],
	"buffers":[
		{
			"byteLength":368016,
			"uri":"SpiralTranscription.bin"
		}
	]
}
