{
	"asset":{
		"generator":"Khronos glTF Blender I/O v3.6.28",
		"version":"2.0"
	},
	"scene":0,
	"scenes":[
		{
			"name":"Scene",
			"nodes":[
				0,
				1,
				2
			]
		}
	],
	"nodes":[
		{
			"mesh":0,
			"name":"SingleMesh",
			"translation":[
				0,
				-0.0808955729007721,
				0
			]
		},
		{
			"name":"controlDeform",
			"translation":[
				0,
				-2.5370731353759766,
				0
			]
		},
		{
			"mesh":1,
			"name":"Shield"
		}
	],
	"materials":[
		{
			"doubleSided":true,
			"emissiveFactor":[
				1,
				1,
				1
			],
			"name":"BrightWhite",
			"pbrMetallicRoughness":{
				"baseColorFactor":[
					0,
					0,
					0,
					1
				]
			}
		},
		{
			"alphaMode":"BLEND",
			"doubleSided":true,
			"emissiveFactor":[
				1,
				1,
				1
			],
			"name":"Shield",
			"pbrMetallicRoughness":{
				"baseColorTexture":{
					"index":0
				},
				"metallicFactor":0,
				"roughnessFactor":0.5
			}
		}
	],
	"meshes":[
		{
			"name":"Plane",
			"primitives":[
				{
					"attributes":{
						"POSITION":0,
						"NORMAL":1
					},
					"indices":2,
					"material":0
				}
			]
		},
		{
			"name":"Cylinder",
			"primitives":[
				{
					"attributes":{
						"POSITION":3,
						"NORMAL":4,
						"TEXCOORD_0":5
					},
					"indices":6,
					"material":1
				}
			]
		}
	],
	"textures":[
		{
			"sampler":0,
			"source":0
		}
	],
	"images":[
		{
			"mimeType":"image/png",
			"name":"ShieldBake",
			"uri":"ShieldBake.png"
		}
	],
	"accessors":[
		{
			"bufferView":0,
			"componentType":5126,
			"count":276583,
			"max":[
				26.779407501220703,
				0.059999994933605194,
				21.99932098388672
			],
			"min":[
				-19.151166915893555,
				-30.859052658081055,
				-31.09078025817871
			],
			"type":"VEC3"
		},
		{
			"bufferView":1,
			"componentType":5126,
			"count":276583,
			"type":"VEC3"
		},
		{
			"bufferView":2,
			"componentType":5125,
			"count":496413,
			"type":"SCALAR"
		},
		{
			"bufferView":3,
			"componentType":5126,
			"count":66,
			"max":[
				3.40445613861084,
				6.782827377319336,
				3.40445613861084
			],
			"min":[
				-3.40445613861084,
				-0.02608489990234375,
				-3.40445613861084
			],
			"type":"VEC3"
		},
		{
			"bufferView":4,
			"componentType":5126,
			"count":66,
			"type":"VEC3"
		},
		{
			"bufferView":5,
			"componentType":5126,
			"count":66,
			"type":"VEC2"
		},
		{
			"bufferView":6,
			"componentType":5123,
			"count":192,
			"type":"SCALAR"
		}
	],
	"bufferViews":[
		{
			"buffer":0,
			"byteLength":3318996,
			"byteOffset":0,
			"target":34962
		},
		{
			"buffer":0,
			"byteLength":3318996,
			"byteOffset":3318996,
			"target":34962
		},
		{
			"buffer":0,
			"byteLength":1985652,
			"byteOffset":6637992,
			"target":34963
		},
		{
			"buffer":0,
			"byteLength":792,
			"byteOffset":8623644,
			"target":34962
		},
		{
			"buffer":0,
			"byteLength":792,
			"byteOffset":8624436,
			"target":34962
		},
		{
			"buffer":0,
			"byteLength":528,
			"byteOffset":8625228,
			"target":34962
		},
		{
			"buffer":0,
			"byteLength":384,
			"byteOffset":8625756,
			"target":34963
		}
	],
	"samplers":[
		{
			"magFilter":9729,
			"minFilter":9987
		}
	],
	"buffers":[
		{
			"byteLength":8626140,
			"uri":"SpiralTranscription.bin"
		}
	]
}
